<svg height="256px" viewBox="-27 0 443 443.93" width="256px" xmlns="http://www.w3.org/2000/svg"><path d="m211.847656 186.828125c.367188-16.296875 12.820313-29.359375 28.109375-29.359375h.660157c15.539062 0 28.128906 13.492188 28.128906 30.140625v9.691406c0-16.640625 12.601562-30.128906 28.128906-30.128906h.070312c15.539063 0 28.132813 13.488281 28.132813 30.128906v15.289063c0-16.648438 12.589844-30.140625 28.128906-30.140625h.621094c15.507813 0 28.097656 13.441406 28.128906 30.050781.128907 54.351562.050781 59.691406-.03125 140.859375-.039062 45.582031-34.539062 82.5-77.089843 82.5h-91.351563c-27.957031 0-53.726563-16.21875-67.339844-42.371094l-81.449219-156.476562 8.511719-7.0625c17.621094-16.1875 44.109375-14.199219 59.449219 4.472656l22.789062 27.738281.132813-190.898437c.019531-16.632813 12.609375-30.113281 28.128906-30.113281h.007813c15.542968 0 28.132812 13.492187 28.132812 30.132812zm0 0" fill="#f7caa5"/><g fill="#083863"><path d="m353.828125 174.929688h-.621094c-8.347656-.0625-16.433593 2.890624-22.773437 8.320312-5.375-13.964844-18.371094-23.960938-33.558594-23.960938-9.222656.097657-18.039062 3.816407-24.542969 10.355469-6.03125-12.003906-18.28125-19.621093-31.714843-19.714843h-.660157c-7.46875 0-14.710937 1.875-19.710937 5.898437v-84.546875c0-21.027344-16.40625-38.132812-36.339844-38.132812-19.898438 0-36.199219 17.09375-36.230469 38.105468l-.164062 168.585938-8.648438-10.5c-8.539062-10.628906-21.113281-17.230469-34.707031-18.226563-13.316406-.914062-26.421875 3.71875-36.199219 12.800781l-8.367187 6.9375c-2.898438 2.40625-3.726563 6.507813-1.988282 9.851563l81.445313 156.515625c14.988281 28.792969 43.511719 46.710938 74.4375 46.710938h91.351563c46.875 0 85.046874-40.628907 85.089843-90.527344.023438-21.644532.042969-37.917969.058594-51.144532.050781-36.304687.066406-49.660156-.027344-89.523437-.039062-20.972656-16.246093-37.804687-36.128906-37.804687zm20.15625 127.289062c-.015625 13.230469-.035156 29.519531-.058594 51.167969-.035156 41.085937-31.03125 74.542969-69.089843 74.542969h-91.351563c-24.9375 0-48.023437-14.621094-60.242187-38.101563l-78.46875-150.765625 3.539062-2.949219c.101562-.082031.203125-.175781.300781-.269531 6.566407-6.179688 15.40625-9.355469 24.40625-8.761719 9.203125.707031 17.695313 5.203125 23.449219 12.417969l22.792969 27.738281c2.144531 2.609375 5.695312 3.59375 8.875 2.453125 3.179687-1.136718 5.300781-4.148437 5.304687-7.527344l.128906-190.894531c.015626-12.199219 9.246094-22.121093 20.339844-22.121093 11.097656 0 20.335938 9.929687 20.335938 22.132812v115.464844c0 .28125-.019532.566406-.019532.855468 0 .132813.019532.261719.019532.398438v49.328125c0 4.421875 3.582031 8 8 8 4.417968 0 8-3.578125 8-8v-50.34375c0-11.867187 8.898437-21.054687 19.710937-21.054687h.660157c11.097656 0 19.628906 9.472656 19.628906 21.679687v45.03125c0 4.417969 3.582031 8 8 8 4.417968 0 8-3.582031 8-8v-35.339844c0-12.199219 9.363281-22.128906 20.535156-22.128906 11.101562 0 20.464844 9.925781 20.464844 22.128906v33.339844c0 4.417969 3.582031 8 8 8 4.417968 0 8-3.582031 8-8v-18.050781c0-12.207032 8.859375-21.660156 19.960937-21.660156h.621094c11.074219 0 20.105469 9.660156 20.128906 21.828124.09375 39.839844.078125 53.175782.027344 89.460938zm0 0"/><path d="m70.421875 188.128906c-3.121094-3.125-8.1875-3.125-11.3125 0l-13.863281 13.867188v-166.414063l13.863281 13.863281c3.125 3.125 8.191406 3.125 11.316406 0s3.121094-8.191406-.003906-11.316406l-25.519531-25.519531c-.859375-2.847656-3.234375-4.984375-6.15625-5.542969-2.925782-.554687-5.917969.558594-7.765625 2.894532l-.019531.019531-28.152344 28.148437c-3.125 3.125-3.125 8.191406 0 11.316406s8.191406 3.125 11.316406 0l15.121094-15.121093v168.933593l-15.121094-15.128906c-3.125-3.125-8.191406-3.125-11.316406 0-3.125 3.125-3.125 8.191406 0 11.316406l28.152344 28.148438c3.121093 3.125 8.1875 3.125 11.3125 0l28.148437-28.148438c3.125-3.125 3.125-8.191406 0-11.316406zm0 0"/><path d="m132.566406 67.050781c0-28.195312 22.855469-51.050781 51.050782-51.050781 28.191406 0 51.050781 22.855469 51.050781 51.050781 0 4.417969 3.578125 8 8 8 4.417969 0 8-3.582031 8-8 0-37.03125-30.019531-67.050781-67.050781-67.050781s-67.050782 30.019531-67.050782 67.050781c0 4.417969 3.582032 8 8 8 4.417969 0 8-3.582031 8-8zm0 0"/></g></svg>