<svg enable-background="new 0 0 1080 1080" viewBox="0 0 1080 1080" xmlns="http://www.w3.org/2000/svg"><path d="m757.67 335.67h-417.34l198.47-189.69c5.71-5.46 14.7-5.46 20.4 0z" fill="#bb9e2e"/><path d="m757.67 335.67h-417.34l208.67 149.33z" fill="#7d6a1f"/><path d="m728.4 526.72h-358.8c-4.98 0-9.02-4.04-9.02-9.02v-300.96c0-4.98 4.04-9.02 9.02-9.02h358.8c4.98 0 9.02 4.04 9.02 9.02v300.96c.01 4.98-4.03 9.02-9.02 9.02z" fill="#fff" stroke="#000" stroke-miterlimit="10"/><path d="m416.74 271.04 8.23-.3 8.23-.23 16.47-.45c10.98-.23 21.96-.45 32.94-.58 10.98-.18 21.96-.23 32.94-.33l32.94-.11 32.94.11c10.98.11 21.96.15 32.94.33 10.98.13 21.96.35 32.94.58l16.47.45 8.23.23 8.23.3-8.23.3-8.23.23-16.47.45c-10.98.23-21.96.45-32.94.58-10.98.19-21.96.22-32.94.33l-32.94.11-32.94-.11c-10.98-.11-21.96-.15-32.94-.33-10.98-.13-21.96-.35-32.94-.58l-16.47-.45-8.23-.23z" opacity=".5"/><path d="m458.15 302.65c9.82-.21 19.63-.4 29.45-.52 9.82-.16 19.63-.2 29.45-.3l30.45-.11 10.11.02 20.34.07c6.09.06 14.18.1 20.27.17 3.39.04 6.79.08 10.18.13 10.15.12 20.3.31 30.44.53 1.33.02 16.39.43 17.72.47.67.02 8.19.23 8.86.26s8.2.31 8.86.34c-.67.03-8.2.32-8.86.34-.67.03-8.19.24-8.86.26-1.33.04-16.39.45-17.72.47-10.15.22-20.3.4-30.45.53-3.38.06-6.77.1-10.15.13-6.1.06-14.2.1-20.3.17l-20.31.07-10.13.02-30.45-.11c-9.82-.1-19.63-.14-29.45-.3-9.82-.12-19.63-.31-29.45-.52-1.33-.02-16.39-.43-17.72-.47-.67-.02-8.19-.23-8.86-.26s-8.2-.31-8.86-.34c.67-.03 8.2-.32 8.86-.34.67-.03 8.19-.24 8.86-.26 1.33-.02 16.39-.42 17.72-.45z" opacity=".5"/><path d="m466.62 335.23c8.65-.19 17.31-.35 25.96-.45 8.65-.14 17.3-.18 25.96-.27l27.96-.1 9.28.01 18.68.07c4.87.05 13.74.09 18.61.14 3.11.03 6.23.07 9.35.12 9.32.11 18.64.27 27.95.47 2.67.05 16.31.41 18.98.49 1.33.04 8.16.24 9.49.29s8.16.32 9.49.39c-1.33.07-8.16.33-9.49.39-1.33.05-8.16.25-9.49.29-2.67.08-16.31.44-18.98.49-9.32.2-18.64.36-27.96.47-3.11.05-6.21.09-9.32.12-4.88.05-13.76.09-18.64.14l-18.65.07-9.3.01-27.97-.1c-8.65-.09-17.3-.13-25.96-.27-8.65-.1-17.31-.26-25.96-.45-2.67-.05-16.31-.41-18.98-.49-1.33-.04-8.16-.24-9.49-.29s-8.16-.32-9.49-.38c1.33-.07 8.16-.33 9.49-.38s8.16-.25 9.49-.29c2.68-.08 16.32-.44 18.99-.49z" opacity=".5"/><path d="m475.09 367.82c7.49-.16 14.98-.3 22.47-.39 7.49-.12 14.98-.15 22.47-.24l25.48-.09h8.46l17.01.06c3.65.04 13.3.08 16.95.12 2.84.03 5.67.07 8.51.11 8.49.1 16.97.23 25.46.42 4 .07 16.23.39 20.23.51 2 .06 8.12.25 10.12.33s8.12.32 10.12.43c-2 .1-8.12.35-10.12.43s-8.12.27-10.12.33c-4 .12-16.23.44-20.23.51-8.49.19-16.98.32-25.47.42-2.83.04-5.66.08-8.49.11-3.66.04-13.32.08-16.98.12l-16.99.06h-8.47l-25.48-.09c-7.49-.08-14.98-.12-22.47-.24-7.49-.09-14.98-.22-22.47-.39-4-.07-16.23-.39-20.23-.51-2-.06-8.12-.25-10.12-.33s-8.12-.32-10.12-.43c2-.1 8.12-.35 10.12-.43s8.12-.27 10.12-.33c4-.1 16.24-.42 20.24-.49z" opacity=".5"/><path d="m483.55 400.4c6.33-.14 12.65-.25 18.98-.32 6.33-.09 12.65-.13 18.98-.2l22.99-.09 7.63-.01 15.35.06c2.44.02 12.85.07 15.29.1 2.56.03 5.12.06 7.68.1 7.66.09 15.31.2 22.97.37 5.33.1 16.16.37 21.49.53 2.67.08 8.08.25 10.74.36 2.67.11 8.08.33 10.75.47-2.67.14-8.08.36-10.75.47s-8.08.28-10.74.36c-5.33.17-16.16.44-21.49.53-7.66.17-15.32.28-22.98.37-2.55.04-5.11.07-7.66.1-2.44.02-12.88.07-15.32.1l-15.32.06-7.64-.01-22.99-.09c-6.33-.07-12.65-.11-18.98-.2-6.33-.08-12.65-.18-18.98-.32-5.33-.1-16.16-.37-21.49-.53-2.67-.08-8.08-.25-10.74-.36-2.67-.11-8.08-.33-10.75-.47 2.67-.14 8.08-.36 10.75-.47s8.08-.28 10.74-.36c5.34-.18 16.16-.45 21.49-.55z" opacity=".5"/><path d="m492.02 432.98c5.16-.12 10.33-.2 15.49-.26 5.16-.07 10.33-.11 15.49-.17l20.5-.08 6.81-.02 13.69.06c1.22.01 12.41.07 13.63.08 2.28.03 4.56.06 6.85.08 6.83.08 13.65.16 20.48.31 6.67.12 16.08.35 22.74.56 3.33.1 8.04.26 11.37.39s8.04.34 11.37.51c-3.33.17-8.04.37-11.37.51-3.33.13-8.04.29-11.37.39-6.67.21-16.08.43-22.74.56-6.83.15-13.66.24-20.49.31-2.28.03-4.55.06-6.83.08-1.22.01-12.44.07-13.66.08l-13.66.06-6.81-.02-20.51-.07c-5.16-.06-10.33-.1-15.49-.17-5.16-.06-10.33-.14-15.49-.26-6.67-.12-16.08-.35-22.74-.56-3.33-.1-8.04-.26-11.37-.4s-8.04-.34-11.37-.51c3.33-.17 8.04-.38 11.37-.51 3.33-.14 8.04-.29 11.37-.4 6.66-.2 16.08-.42 22.74-.55z" opacity=".5"/><path d="m644.49 467.13c-16 .83-32 1.26-48 1.55-8 .18-16 .23-24 .33l-24 .11-24-.11c-8-.11-16-.15-24-.33-16-.29-32-.73-48-1.56 16-.83 32-1.27 48-1.56 8-.19 16-.22 24-.33l24-.11 24 .11c8 .11 16 .15 24 .33 16 .31 32 .74 48 1.57z" opacity=".5"/><path d="m549 477.48-208.67-141.81v270.11c0 7.47 6.37 13.52 14.23 13.52h388.87c7.86 0 14.23-6.05 14.23-13.52v-270.11z" fill="#f8c80d"/><path d="m592.47 464.45c12.87 10.34 25.61 20.82 38.23 31.45 6.34 5.28 12.6 10.65 18.9 15.98l18.79 16.1 18.69 16.22c6.19 5.45 12.42 10.86 18.57 16.35 12.36 10.92 24.6 22 36.71 33.22-12.87-10.33-25.62-20.81-38.24-31.44-6.34-5.28-12.6-10.65-18.9-15.98l-18.79-16.1-18.68-16.23c-6.19-5.45-12.42-10.86-18.57-16.35-12.36-10.93-24.6-22-36.71-33.22z" fill="#4d4d4d"/><path d="m508.83 461.44c-12.09 10.76-24.31 21.37-36.65 31.83-6.14 5.26-12.36 10.44-18.54 15.66l-18.64 15.53-18.75 15.41c-6.28 5.09-12.53 10.23-18.85 15.28-12.59 10.16-25.3 20.17-38.14 30.03 12.09-10.76 24.31-21.37 36.64-31.84 6.14-5.26 12.36-10.44 18.54-15.66l18.64-15.53 18.75-15.4c6.28-5.09 12.53-10.23 18.85-15.27 12.61-10.16 25.32-20.17 38.15-30.04z" fill="#4d4d4d"/><circle cx="683.81" cy="403.19" fill="#333" r="53.62"/><circle cx="681.56" cy="400.21" fill="#121212" r="53.62"/><path d="m678.88 404.32c1.84 2.22 3.56 4.51 5.22 6.83.84 1.16 1.66 2.33 2.46 3.51.82 1.17 1.62 2.35 2.39 3.55l-2.3.05c1.44-2.76 3.13-5.24 4.97-7.68 1.87-2.4 3.92-4.69 6.25-6.69 1.15-1.01 2.37-1.96 3.67-2.8 1.29-.85 2.64-1.61 4.08-2.19 2.83-1.24 6.02-1.77 8.99-1.29-2.99.37-5.72 1.43-8.17 2.91-2.47 1.47-4.66 3.35-6.73 5.36-2.04 2.04-3.95 4.23-5.74 6.52-1.8 2.27-3.48 4.71-5 7.12l-.06.1c-.39.61-1.19.8-1.8.41-.18-.12-.33-.28-.43-.45-.71-1.23-1.4-2.48-2.08-3.74-.69-1.25-1.36-2.51-2.01-3.79-1.31-2.52-2.57-5.09-3.71-7.73z" fill="#0f0"/><g fill="none" stroke="#fff" stroke-miterlimit="10"><circle cx="687.8" cy="380.98" r="15.51"/><path d="m659.8 420.04c0-13.01 10.54-23.55 23.55-23.55h4.46"/></g></svg>